<svg xmlns="http://www.w3.org/2000/svg" width="17" height="11" viewBox="0 0 17 11">
    <g fill="none">
        <path fill="#FFF" d="M9.613 8.951c-.993 1.189-2.497 1.941-4.167 1.941C2.437 10.892 0 8.455 0 5.446S2.437 0 5.446 0c1.67 0 3.174.752 4.167 1.94-1.023.828-1.67 2.092-1.67 3.506 0 1.414.647 2.693 1.67 3.505z"/>
        <path fill="#F89C41" d="M16.97 5.446c0 2.497-2.016 4.513-4.513 4.513-1.069 0-2.061-.376-2.844-1.008.798-.947 1.279-2.166 1.279-3.505s-.481-2.558-1.279-3.505c.783-.632 1.76-1.008 2.844-1.008 2.497 0 4.513 2.03 4.513 4.513z"/>
    </g>
</svg>
