<svg xmlns="http://www.w3.org/2000/svg" width="18" height="17" viewBox="0 0 18 17">
    <g fill="none" fill-rule="evenodd">
        <g fill="#FFF" fill-rule="nonzero">
            <path d="M13.978 14.2v-1.667c0-1.84-1.493-3.333-3.334-3.333H3.978C2.137 9.2.644 10.692.644 12.533V14.2"/>
            <circle cx="7.311" cy="4" r="4"/>
        </g>
        <g stroke="#0F51A1" transform="translate(9 8)">
            <path fill="#FFF" fill-rule="nonzero" d="M4-.5c-.348 0-.663.144-.888.388-.105.114-.176.266-.9.715-.164-.078-.345-.12-.53-.12-.326 0-.638.13-.868.36-.23.23-.36.542-.36.868 0 .16.056.315-.138 1.161-.173.062-.329.162-.457.29-.222.221-.359.528-.359.867 0 .348.144.663.388.888.114.105.266.176.713.876-.077.163-.118.342-.118.525 0 .326.13.638.36.868.23.23.542.36.868.36.16 0 .315-.056 1.161.138.062.173.162.329.29.457.221.222.528.359.867.359.348 0 .663-.144.888-.388.105-.114.176-.266.876-.713.163.077.342.118.525.118.326 0 .638-.13.868-.36.23-.23.36-.542.36-.868 0-.16-.055-.313.136-1.132.174-.061.33-.161.459-.29.222-.221.359-.528.359-.867 0-.348-.144-.663-.388-.888-.114-.105-.266-.176-.715-.9.078-.164.12-.345.12-.53 0-.326-.13-.638-.36-.868-.23-.23-.542-.36-.868-.36-.16 0-.313.055-1.132-.136-.061-.174-.161-.33-.29-.459C4.647-.363 4.34-.5 4-.5z"/>
            <circle cx="4" cy="4" r="1.091" stroke-linecap="round" stroke-linejoin="round"/>
        </g>
    </g>
</svg>
