<svg xmlns="http://www.w3.org/2000/svg" width="13" height="13" viewBox="0 0 13 13">
    <path fill="none" fill-rule="evenodd" stroke="#8A94A6" stroke-linecap="round" stroke-linejoin="round" d="M12.426 9.128v1.72c0 .323-.134.632-.373.85-.238.219-.558.326-.88.297-1.768-.191-3.466-.794-4.958-1.76-1.388-.88-2.565-2.055-3.447-3.44-.97-1.496-1.575-3.2-1.763-4.972-.03-.32.078-.638.295-.876.218-.238.525-.373.848-.374H3.87c.577-.005 1.069.417 1.15.987.072.55.207 1.09.401 1.61.158.42.057.892-.258 1.21l-.73.729c.818 1.435 2.009 2.624 3.447 3.44l.73-.728c.319-.315.792-.416 1.212-.258.521.194 1.063.329 1.614.401.578.082 1.003.582.989 1.164h0z"/>
</svg>
