<svg xmlns="http://www.w3.org/2000/svg" width="19" height="19" viewBox="0 0 19 19">
    <path fill="#8A94A6" fill-rule="evenodd" d="M13.975 12.386c-.078-.077-.448.304-.526.226-.097-.098 0-.751 0-.751.933-1.272 1.432-2.81 1.425-4.386C14.857 3.358 11.527.024 7.411 0 5.44-.009 3.549.77 2.157 2.164.765 3.558-.01 5.451 0 7.421c.018 4.117 3.348 7.451 7.464 7.475 1.584.007 3.127-.498 4.4-1.44l.005-.005s.6-.093.694 0c.07.07-.27.424-.195.5l4.698 4.7c.281.295.7.414 1.094.312.394-.102.702-.41.804-.805.102-.394-.018-.812-.313-1.093l-4.676-4.679zm-6.516 1.02c-3.293-.019-5.957-2.686-5.971-5.98-.01-1.575.612-3.09 1.725-4.204C4.327 2.107 5.84 1.483 7.416 1.49c3.293.018 5.957 2.686 5.971 5.98.009 1.575-.613 3.089-1.726 4.204-1.113 1.115-2.626 1.739-4.202 1.732z"/>
</svg>
