<svg xmlns="http://www.w3.org/2000/svg" width="16" height="16" viewBox="0 0 16 16">
    <path fill="none" fill-rule="evenodd" stroke="#8A94A6" stroke-linecap="round" stroke-linejoin="round" d="M4.586 3.173c-.792 0-1.434.642-1.434 1.435 0 .792.642 1.434 1.435 1.434.792 0 1.434-.642 1.434-1.435v-.02c0-.781-.633-1.414-1.413-1.414h-.022zM1.38 1.38c.158-.153.37-.237.59-.232L7.245 1c.347-.002.681.135.928.38l6.645 6.645c.496.477.51 1.265.034 1.76-.011.012-.022.023-.034.033l-5 5c-.476.496-1.264.51-1.76.034l-.033-.034L1.38 8.173c-.245-.247-.382-.58-.38-.928l.148-5.275c-.005-.22.079-.432.232-.59z"/>
</svg>
