<svg xmlns="http://www.w3.org/2000/svg" width="16" height="16" viewBox="0 0 16 16">
    <g fill="none">
        <path fill="#FFF" d="M7.337.052L.171 3.51c-.09.044-.147.135-.147.235v8.51c0 .1.057.191.147.234l7.165 3.46c.142.068.309.068.452 0l7.164-3.46c.09-.043.147-.134.147-.234v-8.51c0-.1-.057-.191-.147-.235L7.79.052c-.143-.07-.31-.07-.452 0z"/>
        <path fill="#FFF" d="M.068 3.602c-.027.042-.043.09-.043.143v8.51c0 .1.057.191.147.234l7.165 3.46c.07.034.148.051.226.051V7.22L.067 3.602zM15.057 3.602c.027.042.043.09.043.143v8.51c0 .1-.057.191-.147.234L7.79 15.95c-.072.034-.15.051-.226.051V7.22l7.494-3.618z"/>
        <path fill="#0F51A1" d="M3.323 11.802c-.07 0-.141-.016-.208-.05l-2.04-1.013c-.24-.119-.34-.413-.224-.659.115-.245.402-.347.64-.23l2.04 1.014c.24.119.34.414.224.659-.082.176-.254.279-.432.279zM5.31 10.802c-.07 0-.144-.016-.212-.05L1.08 8.76C.837 8.64.734 8.338.852 8.087c.118-.25.413-.356.657-.235l4.016 1.99c.244.122.347.423.23.674-.085.18-.261.286-.444.286zM12.517 4.824L6.391 1.868 4.408 2.829 10.552 5.791z"/>
        <path fill="#0F51A1" d="M10.552 5.79v2.82c0 .096.1.158.186.117l1.632-.788c.09-.044.147-.135.147-.234v-2.88l-1.965.966z"/>
    </g>
</svg>
