<svg xmlns="http://www.w3.org/2000/svg" width="15" height="15" viewBox="0 0 15 15">
    <path fill="#FFF" d="M3.586 2.173c-.792 0-1.434.642-1.434 1.435 0 .792.642 1.434 1.435 1.434.792 0 1.434-.642 1.434-1.435v-.02c0-.781-.633-1.414-1.413-1.414h-.022zM.38.38C.538.227.75.143.97.148L6.245 0c.347-.002.681.135.928.38l6.645 6.645c.496.477.51 1.265.034 1.76-.011.012-.022.023-.034.033l-5 5c-.476.496-1.264.51-1.76.034l-.033-.034L.38 7.173c-.245-.247-.382-.58-.38-.928L.148.97C.143.75.227.538.38.38z"/>
</svg>
